<mxfile host="app.diagrams.net" agent="Mozilla/5.0 (Windows NT 10.0; Win64; x64) AppleWebKit/537.36 (KHTML, like Gecko) Chrome/126.0.0.0 Safari/537.36" version="24.7.4">
  <diagram name="Page-1" id="RUQkrgPkmwH8H8QFx41w">
    <mxGraphModel dx="1050" dy="557" grid="1" gridSize="10" guides="1" tooltips="1" connect="1" arrows="1" fold="1" page="1" pageScale="1" pageWidth="850" pageHeight="1100" math="0" shadow="0">
      <root>
        <mxCell id="0" />
        <mxCell id="1" parent="0" />
        <mxCell id="C4-2D_JsCW40GywkMAbe-1" value="Secondary Memory" style="rounded=1;whiteSpace=wrap;html=1;" vertex="1" parent="1">
          <mxGeometry x="350" y="30" width="120" height="60" as="geometry" />
        </mxCell>
        <mxCell id="C4-2D_JsCW40GywkMAbe-41" style="edgeStyle=orthogonalEdgeStyle;rounded=0;orthogonalLoop=1;jettySize=auto;html=1;exitX=1;exitY=0.25;exitDx=0;exitDy=0;entryX=0;entryY=0.25;entryDx=0;entryDy=0;" edge="1" parent="1" source="C4-2D_JsCW40GywkMAbe-2" target="C4-2D_JsCW40GywkMAbe-16">
          <mxGeometry relative="1" as="geometry" />
        </mxCell>
        <mxCell id="C4-2D_JsCW40GywkMAbe-2" value="Main Memory" style="whiteSpace=wrap;html=1;rounded=1;" vertex="1" parent="1">
          <mxGeometry x="360" y="150" width="120" height="60" as="geometry" />
        </mxCell>
        <mxCell id="C4-2D_JsCW40GywkMAbe-4" value="" style="whiteSpace=wrap;html=1;rounded=1;" vertex="1" parent="1">
          <mxGeometry x="295" y="310" width="325" height="410" as="geometry" />
        </mxCell>
        <mxCell id="C4-2D_JsCW40GywkMAbe-6" value="Register" style="rounded=1;whiteSpace=wrap;html=1;" vertex="1" parent="1">
          <mxGeometry x="365" y="320" width="120" height="60" as="geometry" />
        </mxCell>
        <mxCell id="C4-2D_JsCW40GywkMAbe-7" value="Arithmetic &amp;amp; Logical Unit (ALU)" style="whiteSpace=wrap;html=1;rounded=1;" vertex="1" parent="1">
          <mxGeometry x="365" y="460" width="120" height="60" as="geometry" />
        </mxCell>
        <mxCell id="C4-2D_JsCW40GywkMAbe-14" value="" style="edgeStyle=orthogonalEdgeStyle;rounded=0;orthogonalLoop=1;jettySize=auto;html=1;" edge="1" parent="1" source="C4-2D_JsCW40GywkMAbe-9" target="C4-2D_JsCW40GywkMAbe-7">
          <mxGeometry relative="1" as="geometry" />
        </mxCell>
        <mxCell id="C4-2D_JsCW40GywkMAbe-17" value="" style="edgeStyle=orthogonalEdgeStyle;rounded=0;orthogonalLoop=1;jettySize=auto;html=1;" edge="1" parent="1" source="C4-2D_JsCW40GywkMAbe-9" target="C4-2D_JsCW40GywkMAbe-16">
          <mxGeometry relative="1" as="geometry" />
        </mxCell>
        <mxCell id="C4-2D_JsCW40GywkMAbe-19" value="" style="edgeStyle=orthogonalEdgeStyle;rounded=0;orthogonalLoop=1;jettySize=auto;html=1;" edge="1" parent="1" source="C4-2D_JsCW40GywkMAbe-9" target="C4-2D_JsCW40GywkMAbe-18">
          <mxGeometry relative="1" as="geometry" />
        </mxCell>
        <mxCell id="C4-2D_JsCW40GywkMAbe-22" style="edgeStyle=orthogonalEdgeStyle;rounded=0;orthogonalLoop=1;jettySize=auto;html=1;exitX=0;exitY=0.75;exitDx=0;exitDy=0;entryX=0;entryY=0.25;entryDx=0;entryDy=0;" edge="1" parent="1" target="C4-2D_JsCW40GywkMAbe-1">
          <mxGeometry relative="1" as="geometry">
            <mxPoint x="270" y="40" as="targetPoint" />
            <mxPoint x="355" y="595" as="sourcePoint" />
            <Array as="points">
              <mxPoint x="355" y="596" />
              <mxPoint x="271" y="596" />
              <mxPoint x="271" y="45" />
            </Array>
          </mxGeometry>
        </mxCell>
        <mxCell id="C4-2D_JsCW40GywkMAbe-24" style="edgeStyle=orthogonalEdgeStyle;rounded=0;orthogonalLoop=1;jettySize=auto;html=1;exitX=1;exitY=0.75;exitDx=0;exitDy=0;entryX=1;entryY=0.5;entryDx=0;entryDy=0;" edge="1" parent="1" source="C4-2D_JsCW40GywkMAbe-9" target="C4-2D_JsCW40GywkMAbe-2">
          <mxGeometry relative="1" as="geometry" />
        </mxCell>
        <mxCell id="C4-2D_JsCW40GywkMAbe-25" style="edgeStyle=orthogonalEdgeStyle;rounded=0;orthogonalLoop=1;jettySize=auto;html=1;exitX=1;exitY=0.25;exitDx=0;exitDy=0;entryX=1;entryY=0.25;entryDx=0;entryDy=0;" edge="1" parent="1" source="C4-2D_JsCW40GywkMAbe-9" target="C4-2D_JsCW40GywkMAbe-6">
          <mxGeometry relative="1" as="geometry">
            <Array as="points">
              <mxPoint x="550" y="595" />
              <mxPoint x="550" y="335" />
            </Array>
          </mxGeometry>
        </mxCell>
        <mxCell id="C4-2D_JsCW40GywkMAbe-9" value="Control unit (CU)" style="rounded=1;whiteSpace=wrap;html=1;" vertex="1" parent="1">
          <mxGeometry x="350" y="580" width="140" height="60" as="geometry" />
        </mxCell>
        <mxCell id="C4-2D_JsCW40GywkMAbe-16" value="output device" style="whiteSpace=wrap;html=1;rounded=1;" vertex="1" parent="1">
          <mxGeometry x="610" y="170" width="120" height="60" as="geometry" />
        </mxCell>
        <mxCell id="C4-2D_JsCW40GywkMAbe-43" style="edgeStyle=orthogonalEdgeStyle;rounded=0;orthogonalLoop=1;jettySize=auto;html=1;exitX=1;exitY=0.5;exitDx=0;exitDy=0;entryX=0;entryY=0.5;entryDx=0;entryDy=0;" edge="1" parent="1" source="C4-2D_JsCW40GywkMAbe-18" target="C4-2D_JsCW40GywkMAbe-2">
          <mxGeometry relative="1" as="geometry" />
        </mxCell>
        <mxCell id="C4-2D_JsCW40GywkMAbe-18" value="Input device" style="rounded=1;whiteSpace=wrap;html=1;" vertex="1" parent="1">
          <mxGeometry x="130" y="160" width="120" height="60" as="geometry" />
        </mxCell>
        <mxCell id="C4-2D_JsCW40GywkMAbe-26" value="" style="endArrow=none;dashed=1;html=1;dashPattern=1 3;strokeWidth=2;rounded=0;" edge="1" parent="1">
          <mxGeometry width="50" height="50" relative="1" as="geometry">
            <mxPoint x="435" y="160" as="sourcePoint" />
            <mxPoint x="435" y="90" as="targetPoint" />
          </mxGeometry>
        </mxCell>
        <mxCell id="C4-2D_JsCW40GywkMAbe-27" value="" style="endArrow=none;dashed=1;html=1;dashPattern=1 3;strokeWidth=2;rounded=0;entryX=0.367;entryY=0.997;entryDx=0;entryDy=0;entryPerimeter=0;" edge="1" parent="1" target="C4-2D_JsCW40GywkMAbe-1">
          <mxGeometry width="50" height="50" relative="1" as="geometry">
            <mxPoint x="390" y="160" as="sourcePoint" />
            <mxPoint x="380" y="140" as="targetPoint" />
          </mxGeometry>
        </mxCell>
        <mxCell id="C4-2D_JsCW40GywkMAbe-28" value="" style="endArrow=none;dashed=1;html=1;dashPattern=1 3;strokeWidth=2;rounded=0;entryX=0.4;entryY=1.05;entryDx=0;entryDy=0;exitX=0.317;exitY=-0.002;exitDx=0;exitDy=0;exitPerimeter=0;entryPerimeter=0;" edge="1" parent="1" source="C4-2D_JsCW40GywkMAbe-4" target="C4-2D_JsCW40GywkMAbe-2">
          <mxGeometry width="50" height="50" relative="1" as="geometry">
            <mxPoint x="320" y="380" as="sourcePoint" />
            <mxPoint x="370" y="330" as="targetPoint" />
          </mxGeometry>
        </mxCell>
        <mxCell id="C4-2D_JsCW40GywkMAbe-29" value="" style="endArrow=none;dashed=1;html=1;dashPattern=1 3;strokeWidth=2;rounded=0;" edge="1" parent="1" source="C4-2D_JsCW40GywkMAbe-4">
          <mxGeometry width="50" height="50" relative="1" as="geometry">
            <mxPoint x="320" y="380" as="sourcePoint" />
            <mxPoint x="440" y="220" as="targetPoint" />
          </mxGeometry>
        </mxCell>
        <mxCell id="C4-2D_JsCW40GywkMAbe-31" value="" style="endArrow=none;dashed=1;html=1;dashPattern=1 3;strokeWidth=2;rounded=0;entryX=0.25;entryY=0;entryDx=0;entryDy=0;" edge="1" parent="1" target="C4-2D_JsCW40GywkMAbe-7">
          <mxGeometry width="50" height="50" relative="1" as="geometry">
            <mxPoint x="390" y="390" as="sourcePoint" />
            <mxPoint x="320" y="460" as="targetPoint" />
            <Array as="points">
              <mxPoint x="400" y="380" />
            </Array>
          </mxGeometry>
        </mxCell>
        <mxCell id="C4-2D_JsCW40GywkMAbe-36" value="Central Processing unit" style="rounded=0;whiteSpace=wrap;html=1;" vertex="1" parent="1">
          <mxGeometry x="390" y="680" width="120" height="60" as="geometry" />
        </mxCell>
        <mxCell id="C4-2D_JsCW40GywkMAbe-44" value="" style="endArrow=none;dashed=1;html=1;dashPattern=1 3;strokeWidth=2;rounded=0;" edge="1" parent="1" target="C4-2D_JsCW40GywkMAbe-6">
          <mxGeometry width="50" height="50" relative="1" as="geometry">
            <mxPoint x="450" y="440" as="sourcePoint" />
            <mxPoint x="370" y="320" as="targetPoint" />
            <Array as="points">
              <mxPoint x="430" y="460" />
              <mxPoint x="430" y="450" />
            </Array>
          </mxGeometry>
        </mxCell>
      </root>
    </mxGraphModel>
  </diagram>
</mxfile>
